<?xml version="1.0" standalone="no"?>
<!DOCTYPE svg PUBLIC "-//W3C//DTD SVG 20010904//EN"
 "http://www.w3.org/TR/2001/REC-SVG-20010904/DTD/svg10.dtd">
<svg version="1.0" xmlns="http://www.w3.org/2000/svg"
 width="396.000000pt" height="400.000000pt" viewBox="0 0 396.000000 400.000000"
 preserveAspectRatio="xMidYMid meet">
<metadata>
Created by potrace 1.15, written by Peter Selinger 2001-2017
</metadata>
<g transform="translate(0.000000,400.000000) scale(0.100000,-0.100000)"
fill="#000000" stroke="none">
<path d="M1040 3595 c-7 -8 -16 -13 -20 -10 -11 7 -57 -46 -74 -86 -12 -30
-20 -36 -38 -32 -15 3 -34 -6 -56 -24 -44 -37 -53 -107 -24 -172 l20 -44 11
39 c6 21 11 56 11 78 0 33 7 46 50 88 28 27 50 53 50 57 0 11 57 82 65 81 3
-1 20 8 38 19 l32 21 -26 0 c-15 0 -32 -7 -39 -15z"/>
<path d="M1160 3573 c-31 -11 -80 -68 -86 -100 -5 -28 -10 -33 -34 -33 -68 0
-110 -121 -70 -200 33 -64 42 -55 54 54 7 60 25 98 52 110 11 5 28 29 38 53
12 29 36 58 68 84 48 38 49 39 21 38 -15 0 -35 -3 -43 -6z"/>
<path d="M1266 3520 c-38 -34 -71 -94 -60 -111 5 -8 -3 -10 -22 -7 -50 7 -68
-20 -66 -102 1 -74 19 -122 52 -140 19 -10 20 -7 20 87 1 94 11 133 37 133 5
0 15 15 21 34 7 19 33 58 58 85 44 49 45 51 20 51 -14 0 -41 -13 -60 -30z"/>
<path d="M1431 3481 c-15 -16 -35 -48 -46 -71 -17 -37 -22 -41 -46 -36 -21 4
-28 0 -38 -20 -15 -33 -13 -55 7 -136 20 -78 56 -128 77 -107 11 11 12 31 4
99 -10 92 -5 138 17 147 8 3 22 20 30 37 9 17 35 50 57 74 l41 42 -38 0 c-29
0 -44 -7 -65 -29z"/>
<path d="M1613 3473 c-34 -17 -69 -75 -57 -95 4 -6 3 -8 -3 -5 -6 4 -13 -2
-16 -13 -3 -14 -14 -20 -31 -20 -23 0 -26 -4 -26 -38 0 -76 75 -249 104 -239
14 5 12 127 -3 155 -16 30 -14 101 3 108 12 5 86 141 86 158 0 10 -24 5 -57
-11z"/>
<path d="M1819 3462 c-32 -3 -38 -8 -57 -50 -12 -26 -24 -57 -27 -70 -4 -13
-17 -27 -30 -32 -27 -10 -27 -14 6 -123 33 -110 65 -167 88 -153 16 10 14 88
-5 141 -25 74 -8 156 48 242 16 23 25 43 21 45 -5 2 -24 2 -44 0z"/>
<path d="M2002 3442 c-31 -5 -50 -38 -59 -102 -8 -51 -10 -55 -35 -55 -15 -1
-30 -4 -34 -8 -4 -4 6 -35 23 -70 17 -34 34 -73 38 -87 11 -37 64 -110 79
-110 45 0 29 125 -26 207 -27 40 -27 43 -10 52 21 11 69 159 56 170 -5 4 -19
5 -32 3z"/>
<path d="M2178 3443 c-17 -4 -43 -77 -50 -138 -2 -22 -9 -31 -25 -33 -28 -4
-28 -10 -4 -36 22 -23 71 -118 71 -136 0 -19 60 -100 74 -100 45 0 22 127 -36
201 -28 37 -35 59 -20 59 12 0 42 89 45 134 2 30 -2 40 -18 45 -11 4 -28 6
-37 4z"/>
<path d="M2364 3441 c4 -5 2 -11 -4 -13 -12 -4 -32 -105 -25 -127 6 -19 -14
-52 -21 -35 -5 13 -44 7 -44 -7 0 -4 13 -16 30 -25 27 -17 90 -116 90 -143 0
-7 5 -17 11 -24 5 -7 19 -27 29 -44 12 -20 28 -33 40 -33 17 0 20 7 20 48 0
59 -37 142 -82 183 -21 19 -29 32 -22 37 6 4 16 16 21 27 15 27 25 118 16 130
-10 13 -66 38 -59 26z"/>
<path d="M2560 3423 c-26 -4 -26 -4 -17 -67 11 -73 6 -96 -22 -96 -17 0 -15
-6 17 -38 20 -21 45 -58 55 -82 50 -120 68 -151 84 -148 10 2 21 18 27 35 12
45 -16 117 -65 166 -34 33 -37 40 -29 63 16 41 12 140 -6 158 -8 9 -16 15 -17
15 -1 -1 -13 -4 -27 -6z"/>
<path d="M2704 3401 c4 -14 9 -51 12 -82 6 -55 5 -56 -21 -63 l-27 -7 36 -27
c37 -27 96 -107 96 -129 0 -20 61 -103 76 -103 34 0 24 94 -17 165 -11 19 -36
44 -55 55 -36 23 -42 36 -22 42 8 3 12 27 12 72 -1 76 -13 97 -64 100 -29 2
-31 0 -26 -23z"/>
<path d="M2870 3417 c0 -2 7 -17 15 -34 8 -16 18 -51 21 -76 6 -44 5 -46 -21
-53 l-28 -7 38 -23 c43 -25 66 -56 101 -134 27 -59 62 -103 75 -94 14 8 11 91
-5 127 -13 33 -58 84 -89 102 -15 9 -16 15 -6 49 20 73 -19 146 -78 146 -13 0
-23 -2 -23 -3z"/>
<path d="M3026 3363 c16 -31 24 -60 22 -83 -2 -27 2 -37 18 -45 49 -24 94 -83
108 -138 9 -37 53 -107 67 -107 8 0 9 19 5 62 -9 72 -38 122 -93 155 -33 20
-37 27 -40 70 -2 26 -5 58 -8 70 -8 33 -45 63 -77 63 l-27 0 25 -47z"/>
<path d="M3170 3395 c0 -2 9 -21 19 -42 11 -21 22 -52 26 -70 5 -25 3 -32 -12
-35 -14 -3 -11 -8 15 -21 42 -23 87 -85 100 -140 12 -45 48 -101 61 -93 8 5
-10 104 -27 146 -10 26 -44 60 -76 77 -13 7 -20 24 -23 58 -4 53 -16 82 -46
108 -19 16 -37 22 -37 12z"/>
<path d="M3281 3357 c21 -30 30 -56 32 -86 1 -33 6 -45 22 -51 41 -16 105
-107 105 -151 0 -22 35 -69 53 -69 11 0 -4 74 -24 120 -14 31 -35 56 -65 75
-34 23 -45 38 -49 65 -8 50 -35 98 -66 121 -40 28 -42 24 -8 -24z"/>
<path d="M1150 1825 c0 -13 8 -29 18 -35 12 -8 13 -13 5 -16 -7 -3 -13 -16
-13 -28 0 -34 30 -128 50 -156 21 -29 20 -62 -4 -165 -8 -38 -16 -81 -16 -93
0 -32 37 -82 60 -82 27 0 34 35 28 144 -7 123 -2 139 47 147 22 3 32 7 23 8
-10 0 -18 5 -18 9 0 4 -17 26 -39 48 -29 30 -42 55 -50 94 -7 30 -18 61 -26
70 -13 14 -15 19 -15 39 0 12 -29 41 -41 41 -5 0 -9 -11 -9 -25z"/>
<path d="M1377 1834 c-22 -23 1 -183 36 -251 23 -43 21 -75 -8 -173 -30 -101
-31 -121 -6 -151 19 -22 21 -23 46 -9 24 14 27 22 31 90 8 137 13 152 59 165
37 10 38 12 17 19 -13 4 -21 10 -19 13 3 2 -12 37 -34 76 -21 40 -39 81 -39
92 0 11 -8 32 -17 45 -10 14 -22 38 -28 54 -10 30 -26 42 -38 30z"/>
<path d="M1596 1809 c-7 -36 8 -79 29 -79 8 0 15 -5 15 -11 0 -5 -4 -8 -9 -4
-18 11 -21 -14 -7 -52 26 -65 24 -95 -4 -110 -14 -7 -18 -13 -10 -13 10 0 11
-3 3 -11 -9 -9 -9 -16 0 -29 8 -14 5 -31 -17 -79 -14 -33 -30 -90 -35 -126 -7
-60 -6 -68 13 -81 29 -20 38 -18 68 16 23 26 28 45 38 140 l13 110 47 0 48 0
-8 33 c-6 27 -53 124 -115 237 -7 14 -19 37 -25 52 -18 39 -37 42 -44 7z"/>
<path d="M946 1822 c-3 -5 -1 -46 4 -91 8 -69 14 -87 41 -121 34 -42 45 -93
28 -137 -5 -14 -10 -57 -10 -96 -1 -67 0 -71 33 -98 40 -35 68 -38 68 -7 0 11
-7 56 -16 98 -8 43 -14 97 -12 121 3 40 6 44 33 49 24 4 26 7 13 12 -10 4 -18
14 -18 22 0 9 -9 20 -20 26 -22 12 -60 79 -60 107 -1 22 -54 116 -68 121 -6 2
-13 -1 -16 -6z"/>
<path d="M771 1700 c4 -62 11 -87 28 -111 25 -34 21 -44 -25 -53 -50 -11 -102
45 -119 127 -5 24 -8 27 -20 17 -8 -7 -15 -9 -15 -4 0 19 -20 -22 -20 -42 0
-30 74 -141 100 -149 15 -5 18 -10 11 -19 -6 -7 -8 -16 -4 -20 4 -4 6 -35 5
-69 -4 -95 11 -138 62 -170 24 -15 46 -27 50 -27 16 0 4 69 -18 101 -47 68
-62 179 -27 200 10 7 16 20 14 29 -5 18 19 29 49 22 15 -3 17 -14 14 -70 -3
-75 10 -155 32 -190 8 -13 28 -30 44 -38 25 -13 29 -13 34 1 7 18 3 39 -24
115 -11 30 -22 76 -25 103 -3 41 -1 50 20 65 29 21 23 47 -12 56 -29 7 -79 70
-89 111 -8 30 -51 95 -64 95 -4 0 -5 -36 -1 -80z"/>
<path d="M1835 1749 c-15 -23 -2 -214 16 -235 10 -12 10 -20 1 -35 -7 -10 -12
-25 -12 -32 0 -7 -18 -48 -40 -91 -43 -82 -53 -153 -26 -175 11 -9 21 -5 47
21 37 36 65 105 75 180 l7 48 43 0 c58 0 94 -15 94 -39 0 -23 -42 -103 -76
-144 -24 -28 -30 -60 -18 -91 8 -21 20 -20 54 4 15 11 30 17 32 14 8 -8 67
111 76 153 8 36 10 38 45 37 33 -2 36 1 32 20 -2 11 -9 51 -15 88 -11 70 -33
132 -50 143 -6 4 -8 11 -4 16 9 15 -5 59 -19 59 -27 0 -41 -44 -38 -128 2 -67
-1 -83 -13 -88 -9 -3 -13 -10 -10 -15 3 -5 9 -7 14 -4 4 3 10 -4 13 -15 3 -12
0 -20 -7 -20 -23 0 -76 22 -76 31 0 14 0 16 -22 71 -11 29 -28 75 -38 101 -10
27 -22 53 -29 60 -6 6 -11 19 -11 28 0 42 -29 66 -45 38z"/>
<path d="M2296 1604 c-13 -13 -17 -36 -17 -108 0 -50 0 -106 0 -124 0 -27 -4
-32 -18 -27 -14 4 -20 -1 -24 -22 -3 -16 -29 -59 -57 -97 -83 -111 -78 -159
12 -116 55 25 82 60 103 134 l17 56 51 -2 51 -3 2 33 c1 18 -2 35 -7 38 -5 3
-9 16 -9 28 0 29 -26 103 -47 136 -9 14 -17 38 -17 54 -1 35 -17 43 -40 20z"/>
<path d="M483 1603 c-27 -10 -14 -74 24 -127 21 -28 41 -53 45 -54 10 -5 0
-22 -13 -22 -5 0 -9 7 -9 15 0 11 -7 13 -28 9 -22 -5 -33 1 -60 31 -19 20 -39
50 -46 67 l-14 31 -16 -25 c-15 -23 -15 -30 -3 -60 15 -36 60 -88 92 -105 16
-9 17 -13 6 -27 -11 -13 -11 -16 1 -16 11 0 17 -15 22 -47 12 -88 33 -128 80
-152 24 -11 46 -21 50 -21 10 0 7 38 -4 45 -5 3 -10 13 -10 22 0 8 -11 28 -25
44 -13 16 -32 55 -42 85 l-17 56 24 18 c31 23 40 18 40 -23 0 -18 5 -48 11
-67 5 -19 12 -44 14 -55 3 -11 10 -22 15 -23 6 -2 23 -14 38 -26 15 -13 35
-26 45 -29 16 -6 18 -3 12 24 -4 17 -8 37 -9 45 -1 7 -14 22 -28 34 -44 34
-66 111 -55 196 3 27 1 30 -18 26 -28 -5 -82 58 -91 105 -6 33 -9 35 -31 26z"/>
<path d="M2518 1519 c-10 -5 -18 -21 -18 -34 0 -13 -5 -27 -11 -30 -6 -4 -8
-13 -5 -21 3 -8 1 -35 -4 -62 -6 -26 -13 -65 -16 -87 -7 -54 -44 -114 -96
-158 -24 -20 -51 -44 -60 -52 -21 -18 -23 -35 -5 -58 10 -14 19 -14 57 -5 25
6 52 13 60 16 8 3 18 4 23 4 4 -1 7 5 7 14 0 8 5 25 11 36 9 16 13 18 19 7 6
-9 10 -4 15 17 21 102 22 104 66 100 31 -3 38 -1 30 7 -13 13 -15 54 -2 62 12
7 3 64 -21 134 -10 30 -18 69 -18 88 0 35 -5 38 -32 22z"/>
<path d="M280 1412 c0 -30 8 -46 35 -75 19 -20 39 -37 43 -37 11 0 32 -61 32
-96 0 -44 49 -133 84 -151 36 -19 86 -27 86 -15 0 5 -9 21 -20 35 -11 14 -20
30 -20 35 0 5 -14 15 -31 22 -39 17 -72 80 -73 142 -1 27 -4 48 -8 48 -5 0 -8
7 -8 15 0 9 -9 15 -23 15 -29 0 -77 49 -77 78 0 12 -4 22 -10 22 -5 0 -10 -17
-10 -38z"/>
<path d="M2717 1436 c-8 -9 -18 -44 -22 -78 -8 -79 -35 -169 -52 -175 -7 -3
-13 -12 -13 -20 0 -19 -96 -120 -142 -149 -27 -18 -38 -31 -38 -49 0 -14 5
-25 10 -25 6 0 10 -7 10 -16 0 -13 4 -11 18 6 18 22 82 38 82 20 0 -16 24 -6
32 13 4 10 12 15 18 12 5 -3 10 3 10 14 0 11 6 26 13 33 22 24 47 67 47 83 0
13 8 16 33 14 21 -2 31 1 29 9 -1 7 5 29 14 50 18 44 20 112 5 170 -7 23 -10
54 -9 69 4 32 -21 42 -45 19z"/>
<path d="M2903 1342 c-16 -10 -32 -55 -44 -120 -13 -67 -41 -118 -63 -114 -11
2 -16 -4 -16 -18 0 -30 -105 -137 -158 -160 -35 -16 -43 -24 -40 -41 3 -26 44
-34 53 -12 3 8 15 14 27 12 33 -2 88 12 88 23 0 6 9 8 20 5 15 -4 20 0 20 14
0 10 12 42 28 69 25 47 30 51 59 48 28 -3 30 -2 21 15 -7 14 -6 23 6 36 14 16
33 95 27 116 -8 27 -8 83 -1 95 8 14 3 40 -9 40 -3 0 -11 -4 -18 -8z"/>
<path d="M3057 1232 c-9 -10 -26 -47 -37 -82 -21 -67 -58 -120 -83 -120 -8 0
-18 -11 -21 -25 -12 -48 -73 -102 -146 -130 -57 -22 -80 -39 -80 -60 0 -2 7
-11 16 -20 14 -14 17 -14 28 -1 6 9 33 18 60 21 58 7 127 59 157 118 14 27 26
37 43 37 55 0 105 105 88 184 -6 27 -5 48 2 59 17 26 -6 42 -27 19z"/>
<path d="M3175 1128 c-33 -96 -52 -135 -81 -164 -19 -19 -38 -34 -43 -34 -5 0
-20 -17 -34 -39 -26 -39 -102 -91 -134 -91 -27 0 -83 -38 -83 -56 0 -14 8 -15
58 -9 31 5 65 8 75 7 10 0 47 28 81 64 35 35 71 64 80 64 9 0 16 5 16 10 0 6
11 16 25 22 36 16 59 85 51 148 -4 30 -2 58 4 70 8 14 8 20 0 20 -6 0 -13 -6
-15 -12z"/>
<path d="M260 980 c14 -19 19 -37 15 -50 -5 -16 5 -32 42 -68 26 -26 67 -68
90 -95 42 -48 56 -54 83 -37 12 8 8 16 -25 50 -28 29 -34 40 -22 40 21 0 21 4
1 35 -9 14 -23 25 -31 25 -8 0 -28 8 -46 17 -18 9 -35 16 -40 15 -4 -1 -6 4
-5 11 2 7 -5 11 -17 9 -15 -2 -17 -1 -6 6 11 8 10 15 -5 41 -10 17 -27 31 -37
31 -17 0 -17 -2 3 -30z"/>
<path d="M3260 975 c0 -48 -83 -145 -124 -145 -8 0 -26 -16 -40 -36 -29 -43
-76 -76 -131 -94 -97 -30 -113 -63 -27 -57 75 5 127 31 165 83 19 25 38 41 47
39 28 -7 84 29 107 70 24 42 33 155 13 155 -5 0 -10 -7 -10 -15z"/>
<path d="M3301 829 c-14 -27 -34 -52 -45 -55 -12 -4 -32 -14 -46 -24 -14 -9
-31 -15 -37 -13 -7 3 -13 0 -13 -7 0 -24 -98 -109 -138 -119 -22 -6 -51 -20
-63 -30 -19 -15 -21 -21 -11 -34 11 -13 19 -13 63 -2 50 13 155 84 166 110 3
8 29 26 59 39 46 21 58 32 74 70 43 96 34 153 -9 65z"/>
<path d="M3361 760 c-16 -54 -52 -94 -108 -118 -27 -11 -59 -32 -73 -47 -35
-38 -83 -65 -146 -84 -65 -19 -71 -37 -11 -33 66 4 100 19 142 62 61 62 78 48
24 -19 -30 -38 -54 -51 -151 -86 -27 -9 -48 -21 -48 -26 0 -5 23 -9 50 -9 61
0 117 26 157 74 17 21 41 36 63 41 46 10 103 56 124 99 27 58 19 71 -17 24
-18 -24 -44 -48 -57 -54 -42 -20 -70 -26 -70 -16 0 6 12 13 28 17 15 3 39 18
54 33 28 26 68 116 68 152 0 35 -17 30 -29 -10z"/>
<path d="M3357 552 c-27 -37 -84 -72 -121 -72 -7 0 -29 -18 -49 -39 -31 -34
-122 -81 -156 -81 -5 0 -14 -6 -20 -14 -9 -11 -2 -12 40 -5 28 5 62 15 75 24
32 21 41 19 19 -5 -10 -11 -49 -30 -87 -41 -37 -12 -68 -25 -68 -31 0 -6 11
-7 28 -4 23 6 22 3 -13 -19 -22 -15 -32 -24 -22 -21 10 3 34 6 53 6 25 0 45
10 75 37 23 21 45 48 50 60 5 13 14 25 21 27 7 2 33 9 56 16 24 6 41 14 38 17
-3 3 -20 0 -38 -6 -18 -6 -28 -7 -23 -2 6 5 27 14 49 21 46 15 66 34 101 96
35 63 29 90 -8 36z"/>
</g>
</svg>
